<svg data-v-0dd9719b="" version="1.0" xmlns="http://www.w3.org/2000/svg" xmlns:xlink="http://www.w3.org/1999/xlink" width="100%" height="100%" viewBox="0 0 340.000000 250.000000" preserveAspectRatio="xMidYMid meet" color-interpolation-filters="sRGB" style="margin: auto;"> <rect data-v-0dd9719b="" x="0" y="0" width="100%" height="100%" fill="#fff" fill-opacity="1" class="background"></rect> <rect data-v-0dd9719b="" x="0" y="0" width="100%" height="100%" fill="url(#watermark)" fill-opacity="1" class="watermarklayer"></rect> <g data-v-0dd9719b="" fill="#359f1b" class="icon-text-wrapper icon-svg-group iconsvg" transform="translate(49.310813903808594,97.30874824523926)"><g class="iconsvg-imagesvg" transform="translate(0,0.4242267608642578)"><g><rect fill="#359f1b" fill-opacity="0" stroke-width="2" x="0" y="0" width="60" height="54.53405197095152" class="image-rect"></rect> <svg x="0" y="0" width="60" height="54.53405197095152" filtersec="colorsb189956281" class="image-svg-svg primary" style="overflow: visible;"><svg version="1.1" id="图层_1" xmlns="http://www.w3.org/2000/svg" xmlns:xlink="http://www.w3.org/1999/xlink" x="0px" y="0px" viewBox="1.0299999713897705 0.9989337921142578 97.93687438964844 89.01480102539062" enable-background="new 0 0 100 91" xml:space="preserve">
<path fill="#4ABA00" d="M90.93,77.9c-8.46,9.88-21.42,13.61-33.25,10.76c6.84-1.51,13.25-5.17,18.16-10.9
	c12.01-14.03,10.37-35.15-3.66-47.16c-4.15-3.55-8.93-5.9-13.9-7.1c9.91-2.19,20.7,0.13,29,7.24
	C101.3,42.76,102.94,63.87,90.93,77.9z"></path>
<ellipse transform="matrix(0.1832 -0.9831 0.9831 0.1832 3.7175 116.1553)" fill="#4ABA00" cx="71.76" cy="55.84" rx="9.58" ry="9.58"></ellipse>
<path fill="#359F1B" d="M86.44,48.06c5.04,14.1,1.18,29.22-8.66,39.22c-6.39,2.51-13.42,3-20.1,1.39
	c6.83-1.51,13.25-5.17,18.16-10.9c12.01-14.03,10.37-35.15-3.66-47.16c-2.93-2.51-6.18-4.41-9.58-5.73
	C73.31,28.38,82.35,36.62,86.44,48.06z"></path>
<path fill="#00A0EE" d="M1.03,82.97l9.39-14.89c-0.05-0.14-0.11-0.27-0.16-0.41C5.93,55.42,9.18,42.32,17.56,33.5
	c-2.11,6.68-2.15,14.07,0.36,21.18c6.15,17.42,25.25,26.55,42.67,20.41c5.16-1.82,9.58-4.78,13.1-8.49
	c-3.06,9.68-10.46,17.86-20.77,21.5c-12.92,4.56-26.77,0.7-35.57-8.7L1.03,82.97z"></path>
<ellipse transform="matrix(0.1832 -0.9831 0.9831 0.1832 -29.3933 88.9722)" fill="#00A0EE" cx="38.85" cy="62.18" rx="9.58" ry="9.58"></ellipse>
<path fill="#1681E5" d="M39.12,78.9c-15-2.32-26.5-13.09-30.49-26.76c0.94-6.93,3.99-13.48,8.72-18.68
	c-2.04,6.86-1.97,14.38,0.68,21.55c6.5,17.56,26.03,26.32,43.64,19.56c3.68-1.41,6.97-3.4,9.83-5.81
	C63.07,76.66,51.29,80.78,39.12,78.9z"></path>
<g>
	<path fill="#4ABA00" d="M59.22,1.57c12.78,2.38,22.5,11.75,25.95,23.42c-4.73-5.16-11.11-8.89-18.52-10.27
		c-18.16-3.38-35.62,8.59-39.01,26.75c-1,5.37-0.65,10.69,0.8,15.59c-6.86-7.49-10.23-17.99-8.23-28.74
		C23.6,10.16,41.06-1.81,59.22,1.57z"></path>
</g>
<path fill="#FFD100" d="M59.22,1.57c12.78,2.38,22.5,11.75,25.95,23.42c-4.73-5.16-11.11-8.89-18.52-10.27
	c-18.16-3.38-35.62,8.59-39.01,26.75c-1,5.37-0.65,10.69,0.8,15.59c-6.86-7.49-10.23-17.99-8.23-28.74
	C23.6,10.16,41.06-1.81,59.22,1.57z"></path>
<ellipse transform="matrix(0.1832 -0.9831 0.9831 0.1832 11.0823 73.109)" fill="#FFD100" cx="49.54" cy="29.89" rx="9.58" ry="9.58"></ellipse>
<path fill="#FDBC2D" d="M34.99,20.77C44.51,8.95,59.6,4.4,73.43,7.79c5.53,4.29,9.66,10.21,11.8,16.91
	c-4.91-5.2-11.46-8.92-18.99-10.21c-18.45-3.18-35.82,9.34-38.79,27.96c-0.62,3.89-0.55,7.73,0.1,11.42
	C24.92,42.62,27.27,30.36,34.99,20.77z"></path>
</svg></svg> <!----></g></g> <g transform="translate(67,0)"><g data-gra="path-name" fill-rule="" class="tp-name iconsvg-namesvg" transform="translate(0,0)"><g transform="scale(1)"><g><path d="M19.86-36.04L19.86-36.04Q25.14-36.04 25.14-35.33L25.14-35.33Q25.14-34.98 24.79-34.45L24.79-34.45Q23.91-32.87 23.91-30.23L23.91-30.23 23.91-24.08 32.17-24.08Q38.5-24.08 40.61-24.43L40.61-24.43 40.61-20.04Q38.14-20.39 32.17-20.39L32.17-20.39 24.61-20.39Q27.77-4.22 42.71-0.88L42.71-0.88Q40.25 0.18 38.14 3.34L38.14 3.34Q24.79-3.87 22.68-15.82L22.68-15.82Q21.09-2.46 5.8 4.04L5.8 4.04Q4.39 2.11 1.41 0.35L1.41 0.35Q18.11-3.69 20.04-20.39L20.04-20.39 10.55-20.39Q5.45-20.39 3.52-20.04L3.52-20.04 3.52-24.43Q5.63-24.08 10.72-24.08L10.72-24.08 20.21-24.08 20.21-31.64Q20.21-33.93 19.86-35.68L19.86-35.68Q19.86-35.86 19.86-36.04ZM69.43-35.86L69.43-35.86Q73.48-35.16 74.18-34.45L74.18-34.45Q74-34.28 73.65-33.93L73.65-33.93Q72.42-32.87 71.19-30.23L71.19-30.23 78.93-30.23Q82.44-30.23 85.08-30.59L85.08-30.59Q85.61-30.59 85.61-30.59L85.61-30.59 85.61-26.89Q85.43-26.89 85.08-26.89L85.08-26.89Q82.44-27.25 78.93-27.25L78.93-27.25 69.61-27.25Q68.38-25.14 66.62-22.32L66.62-22.32Q65.39-20.39 64.86-19.51L64.86-19.51 71.72-19.51Q71.72-21.8 71.19-24.79L71.19-24.79Q71.19-25.31 71.19-25.49L71.19-25.49Q74.88-25.49 75.94-24.96L75.94-24.96Q75.94-24.79 75.76-24.43L75.76-24.43Q75.06-22.32 75.06-19.69L75.06-19.69 78.05-19.69Q81.56-19.69 84.02-20.04L84.02-20.04Q84.38-20.04 84.55-20.04L84.55-20.04 84.55-16.17Q84.38-16.17 83.67-16.17L83.67-16.17Q81.39-16.52 78.22-16.52L78.22-16.52 75.06-16.52 75.06-11.43 79.63-11.43Q83.14-11.43 85.78-11.78L85.78-11.78Q86.13-11.78 86.13-11.78L86.13-11.78 86.13-7.73Q86.13-7.73 85.61-7.73L85.61-7.73Q82.97-8.09 79.63-8.09L79.63-8.09 75.06-8.09Q75.06-4.92 75.41-2.64L75.41-2.64Q75.41-2.11 75.41-2.11L75.41-2.11 71.19-2.11Q71.19-2.11 71.19-2.46L71.19-2.46Q71.54-4.75 71.54-8.09L71.54-8.09 65.57-8.09Q61-8.09 58.89-7.73L58.89-7.73 58.89-11.78Q59.06-11.78 59.41-11.78L59.41-11.78Q61.88-11.43 65.39-11.43L65.39-11.43 71.72-11.43 71.72-16.35Q70.49-16.35 68.38-16.17L68.38-16.17Q62.58-16.17 60.64-15.82L60.64-15.82 59.94-19.86Q61.88-18.81 65.92-27.25L65.92-27.25 64.34-27.25Q61.88-27.25 59.41-26.89L59.41-26.89Q58.89-26.89 58.71-26.89L58.71-26.89 58.71-30.59Q60.29-30.23 64.16-30.23L64.16-30.23 67.32-30.23Q69.08-34.28 69.43-35.86ZM50.45-32.87L54.67-33.75Q55.9-31.11 57.3-25.49L57.3-25.49 52.91-24.61Q51.68-30.59 50.45-32.87L50.45-32.87ZM47.81-16.52L47.81-20.92Q47.81-20.92 47.99-20.92L47.99-20.92Q49.75-20.57 52.21-20.57L52.21-20.57Q55.2-20.57 56.78-20.92L56.78-20.92Q56.43-19.69 56.43-16.17L56.43-16.17 56.43-4.92Q62.4-1.23 68.55-0.88L68.55-0.88Q74.88-0.18 87.54-2.11L87.54-2.11Q85.78 0 85.43 2.46L85.43 2.46Q72.95 2.81 68.73 2.29L68.73 2.29Q64.34 2.11 60.47 0.53L60.47 0.53Q59.77 0.18 58.36-0.35L58.36-0.35Q56.07-1.76 54.84-1.76L54.84-1.76Q52.56-1.41 50.45 2.29L50.45 2.29 46.76 0Q50.98-3.52 52.91-4.75L52.91-4.75 52.91-17.05 52.38-17.05Q50.27-17.05 48.34-16.7L48.34-16.7Q47.99-16.52 47.81-16.52L47.81-16.52ZM94.39-32.87L96.68-35.86Q99.49-34.45 103.89-31.29L103.89-31.29 101.25-28.3Q97.21-31.64 94.39-32.87L94.39-32.87ZM131.48-34.45L131.48-30.59Q130.61-30.59 129.2-30.76L129.2-30.76Q126.91-30.94 125.33-30.94L125.33-30.94 121.82-30.94 120.06-26.37 124.45-26.37Q127.09-26.37 129.02-26.72L129.02-26.72Q128.67-25.66 128.67-22.68L128.67-22.68 128.67-15.12Q128.67-13.01 129.02-10.72L129.02-10.72Q129.02-10.37 129.02-10.37L129.02-10.37Q127.97-10.72 124.1-10.72L124.1-10.72 121.64-10.72 121.64-1.05Q122.7 3.69 114.61 3.69L114.61 3.69Q114.08 1.58 113.2 0.18L113.2 0.18Q113.03-0.18 113.03-0.35L113.03-0.35Q117.77 0.53 118.3-1.41L118.3-1.41 118.3-10.72 116.19-10.72Q111.97-10.72 111.09-10.37L111.09-10.37Q111.09-10.37 111.09-10.72L111.09-10.72Q111.27-12.83 111.27-14.94L111.27-14.94 111.27-22.68Q111.27-24.43 111.09-26.19L111.09-26.19Q111.09-26.54 111.09-26.72L111.09-26.72Q112.85-26.37 115.31-26.37L115.31-26.37 116.54-26.37 117.6-30.94 108.11-30.94 108.11-21.62Q108.28-6.15 102.3 3.16L102.3 3.16Q100.02 0.7 98.79 0.18L98.79 0.18Q104.94-6.15 104.77-20.39L104.77-20.39 104.77-29.71Q104.77-31.99 104.41-33.93L104.41-33.93Q104.41-34.28 104.41-34.28L104.41-34.28Q104.59-34.28 109.34-34.1L109.34-34.1 125.33-34.1Q128.67-34.1 131.48-34.45L131.48-34.45ZM92.29-22.5L94.22-25.66Q97.91-24.26 102.13-21.62L102.13-21.62 99.67-18.28Q96.33-20.57 92.29-22.5L92.29-22.5ZM125.33-23.55L114.79-23.55 114.79-19.86 125.33-19.86 125.33-23.55ZM125.33-17.23L114.79-17.23 114.79-13.54 125.33-13.54 125.33-17.23ZM97.21-16.88L97.21-16.88 100.55-14.59Q99.67-7.03 97.21 1.93L97.21 1.93 93.34-0.7Q95.45-5.63 97.21-16.88ZM112.15-8.61L112.15-8.61 116.02-7.03Q115.84-6.68 115.49-6.15L115.49-6.15Q111.45-0.53 109.51 0.88L109.51 0.88Q107.75-0.18 106-0.53L106-0.53Q110.04-4.04 112.15-8.61ZM123.57-6.86L126.39-8.26Q129.73-5.1 132.71-1.05L132.71-1.05 128.67 0.53Q126.74-3.52 123.57-6.86L123.57-6.86ZM149.59-36.21L149.59-36.21Q154.34-34.28 153.98-34.28L153.98-34.28Q153.98-34.1 153.28-33.57L153.28-33.57Q152.23-32.7 151.52-31.82L151.52-31.82Q157.15-28.83 161.72-25.84L161.72-25.84 158.55-22.68Q154.69-26.37 149.94-29.36L149.94-29.36Q149.59-29 149.06-28.13L149.06-28.13Q147.3-25.66 143.61-21.62L143.61-21.62Q144.84-21.27 149.94-21.27L149.94-21.27Q156.97-21.27 158.73-21.45L158.73-21.45Q159.08-21.62 159.08-21.09L159.08-21.09Q158.73-9.84 157.85-9.67L157.85-9.67Q156.8-7.21 150.82-6.86L150.82-6.86Q150.64-8.79 149.24-10.72L149.24-10.72Q154.34-10.37 154.51-12.13L154.51-12.13Q155.21-13.71 155.04-18.28L155.04-18.28 146.78-18.28 146.78-1.05Q146.6 0.53 148.36 0.35L148.36 0.35 154.51 0.35Q158.03 1.41 158.03-5.63L158.03-5.63Q159.43-4.57 161.89-3.87L161.89-3.87Q160.84 4.75 156.27 3.52L156.27 3.52 147.13 3.52Q142.21 4.22 142.91-0.35L142.91-0.35 142.91-20.92Q140.63-18.63 139.39-17.58L139.39-17.58Q137.99-19.34 136.05-20.21L136.05-20.21Q145.02-27.25 149.59-36.21ZM170.86-34.98L170.86-34.98Q171.39-34.98 172.27-34.98L172.27-34.98Q175.96-34.8 175.78-34.28L175.78-34.28Q175.78-33.93 175.61-33.4L175.61-33.4Q175.08-31.99 175.08-30.23L175.08-30.23 175.08-0.18Q176.13 3.52 167.17 4.22L167.17 4.22Q166.82 1.76 165.41 0L165.41 0Q171.74 0.35 171.39-1.23L171.39-1.23 171.39-30.23Q171.39-31.29 170.86-34.63L170.86-34.63Q170.86-34.8 170.86-34.98ZM162.6-29.71L162.6-29.71Q166.82-29.88 167.34-29.18L167.34-29.18Q167.34-28.83 167.17-28.48L167.17-28.48Q166.64-27.42 166.64-26.19L166.64-26.19 166.64-14.77Q166.64-9.49 166.82-7.56L166.82-7.56 162.6-7.56Q162.6-7.91 162.6-9.67L162.6-9.67Q162.77-13.01 162.77-14.77L162.77-14.77 162.77-26.02Q162.77-29.71 162.6-29.71Z" transform="translate(-1.409999966621399, 36.209999084472656)"></path></g> <!----> <!----> <!----> <!----> <!----> <!----> <!----></g></g> <g data-gra="path-slogan" fill-rule="" class="tp-slogan iconsvg-slogansvg" fill="#359f1b" transform="translate(22.36418914794922,46.43000411987305)"><!----> <!----> <g transform="scale(1, 1)"><g transform="scale(1)"><path d="M4.41 0L0.94 0L0.94-8.58L4.45-8.58Q7.92-8.39 8.06-4.41L8.06-4.41Q7.88-0.09 4.41 0L4.41 0ZM4.27-7.64L2.11-7.64L2.11-0.98L4.36-0.98Q6.80-1.13 6.89-4.31L6.89-4.31Q6.84-7.55 4.27-7.64L4.27-7.64ZM15.19 0L14.34-2.48L10.88-2.48L9.98 0L8.81 0L12.05-8.58L13.36-8.58L16.45 0L15.19 0ZM12.61-7.31L11.25-3.52L13.92-3.52L12.66-7.31L12.61-7.31ZM17.48-8.58L18.66-8.58L18.66-1.03L23.02-1.03L23.02 0L17.48 0L17.48-8.58ZM24.33-8.58L25.50-8.58L25.50 0L24.33 0L24.33-8.58ZM33.14 0L32.30-2.48L28.83-2.48L27.94 0L26.77 0L30-8.58L31.31-8.58L34.41 0L33.14 0ZM30.56-7.31L29.20-3.52L31.88-3.52L30.61-7.31L30.56-7.31ZM36.84-8.58L41.16-1.64L41.16-8.58L42.28-8.58L42.28 0L40.97 0L36.61-6.94L36.56-6.94L36.56 0L35.44 0L35.44-8.58L36.84-8.58ZM54.33-8.58L51.09-3.47L51.09 0L49.92 0L49.92-3.47L46.69-8.58L48.05-8.58L50.48-4.45L52.97-8.58L54.33-8.58ZM61.03-3.19L61.03-8.58L62.20-8.58L62.20-3.05Q62.06 0.05 58.69 0.14L58.69 0.14Q55.55 0.05 55.41-2.86L55.41-2.86L55.41-8.58L56.58-8.58L56.58-3.19Q56.63-0.84 58.73-0.80L58.73-0.80Q61.03-0.84 61.03-3.19L61.03-3.19ZM69.66 0L68.81-2.48L65.34-2.48L64.45 0L63.28 0L66.52-8.58L67.83-8.58L70.92 0L69.66 0ZM67.08-7.31L65.72-3.52L68.39-3.52L67.13-7.31L67.08-7.31ZM73.36-8.58L77.67-1.64L77.67-8.58L78.80-8.58L78.80 0L77.48 0L73.13-6.94L73.08-6.94L73.08 0L71.95 0L71.95-8.58L73.36-8.58ZM87.75-6.05L87.75-6.05L86.63-6.05Q86.20-7.78 84.23-7.83L84.23-7.83Q81.52-7.69 81.42-4.36L81.42-4.36Q81.42-0.80 84.28-0.80L84.28-0.80Q86.25-0.84 86.72-3.19L86.72-3.19L87.84-3.19Q87.33 0.05 84.05 0.14L84.05 0.14Q80.30 0 80.20-4.31L80.20-4.31Q80.39-8.63 84.23-8.81L84.23-8.81Q87.28-8.72 87.75-6.05ZM90.38-5.06L94.88-5.06L94.88-8.58L96.05-8.58L96.05 0L94.88 0L94.88-3.98L90.38-3.98L90.38 0L89.20 0L89.20-8.58L90.38-8.58L90.38-5.06ZM103.50-3.19L103.50-8.58L104.67-8.58L104.67-3.05Q104.53 0.05 101.16 0.14L101.16 0.14Q98.02 0.05 97.88-2.86L97.88-2.86L97.88-8.58L99.05-8.58L99.05-3.19Q99.09-0.84 101.20-0.80L101.20-0.80Q103.50-0.84 103.50-3.19L103.50-3.19ZM112.13 0L111.28-2.48L107.81-2.48L106.92 0L105.75 0L108.98-8.58L110.30-8.58L113.39 0L112.13 0ZM109.55-7.31L108.19-3.52L110.86-3.52L109.59-7.31L109.55-7.31ZM115.83-8.58L120.14-1.64L120.14-8.58L121.27-8.58L121.27 0L119.95 0L115.59-6.94L115.55-6.94L115.55 0L114.42 0L114.42-8.58L115.83-8.58ZM129.47-3.61L126.84-3.61L126.84-4.59L130.59-4.59L130.59 0L129.84 0L129.56-1.08Q128.58 0.09 126.75 0.14L126.75 0.14Q125.02 0.14 124.08-0.75L124.08-0.75Q122.67-2.06 122.72-4.36L122.72-4.36Q123.05-8.63 126.80-8.81L126.80-8.81Q129.98-8.63 130.45-6L130.45-6L129.33-6Q128.86-7.78 126.75-7.83L126.75-7.83Q124.08-7.64 123.94-4.31L123.94-4.31Q123.94-0.75 126.80-0.75L126.80-0.75Q127.83-0.75 128.58-1.31L128.58-1.31Q129.52-2.06 129.47-3.61L129.47-3.61Z" transform="translate(-0.9375, 8.8125)"></path></g></g></g></g></g><defs v-gra="od"></defs></svg>